<?xml version="1.0"?>
<svg width="24" height="24" xmlns="http://www.w3.org/2000/svg" xmlns:svg="http://www.w3.org/2000/svg">
 <g class="layer">
  <title>Layer 1</title>
  <path d="m8.35,20.24c0.84,1.07 2.16,1.76 3.65,1.76c1.49,0 2.81,-0.69 3.65,-1.76c-2.42,0.33 -4.88,0.33 -7.3,0z" fill="#1C274C" id="svg_1"/>
  <path d="m18.75,9l0,0.7c0,0.85 0.24,1.68 0.69,2.38l1.11,1.72c1.01,1.57 0.24,3.71 -1.52,4.21c-4.6,1.3 -9.46,1.3 -14.06,0c-1.76,-0.5 -2.53,-2.64 -1.52,-4.21l1.11,-1.72c0.45,-0.7 0.69,-1.53 0.69,-2.38l0,-0.7c0,-3.87 3.02,-7 6.75,-7c3.73,0 6.75,3.13 6.75,7z" fill="#1C274C" id="svg_2" transform="matrix(1 0 0 1 0 0)"/>
  <text fill="#ffffff" font-family="Fantasy" font-size="8" font-style="italic" font-weight="normal" id="svg_3" stroke="#1C274C" stroke-width="0" text-anchor="start" x="9.06" xml:space="preserve" y="12.49">B</text>
  <path d="m3.08,15.25c6.26,2.99 17.89,0.17 17.88,0.15c-0.02,-0.02 -17.88,-0.15 -17.88,-0.15z" fill="#1C274C" id="svg_4"/>
 </g>
</svg>